{
  "accessors": [
    {
      "bufferView": 0,
      "byteOffset": 0,
      "componentType": 5123,
      "count": 60,
      "type": "SCALAR",
      "max": [47],
      "min": [0]
    },
    {
      "bufferView": 1,
      "byteOffset": 0,
      "componentType": 5126,
      "count": 48,
      "type": "VEC3",
      "max": [-201.6134033203125, 525.4072265625, 184.41940307617188],
      "min": [-269.8522033691406, 7.3813862800598145, 130.92019653320312],
      "name": "POSITION"
    },
    {
      "bufferView": 1,
      "byteOffset": 12,
      "componentType": 5126,
      "count": 48,
      "type": "VEC2",
      "max": [3.56820011138916, 2.708899974822998],
      "min": [-2.56820011138916, -1.5465999841690063],
      "name": "TEXCOORD_0"
    },
    {
      "bufferView": 0,
      "byteOffset": 120,
      "componentType": 5123,
      "count": 60,
      "type": "SCALAR",
      "max": [47],
      "min": [0]
    },
    {
      "bufferView": 2,
      "byteOffset": 0,
      "componentType": 5126,
      "count": 48,
      "type": "VEC3",
      "max": [-201.6134033203125, 525.4072265625, 25.046600341796875],
      "min": [-269.8522033691406, 7.381407260894775, -28.452499389648438],
      "name": "POSITION"
    },
    {
      "bufferView": 2,
      "byteOffset": 12,
      "componentType": 5126,
      "count": 48,
      "type": "VEC2",
      "max": [3.56820011138916, 2.708899974822998],
      "min": [-2.56820011138916, -1.5465999841690063],
      "name": "TEXCOORD_0"
    },
    {
      "bufferView": 0,
      "byteOffset": 240,
      "componentType": 5123,
      "count": 54,
      "type": "SCALAR",
      "max": [42],
      "min": [0]
    },
    {
      "bufferView": 3,
      "byteOffset": 0,
      "componentType": 5126,
      "count": 43,
      "type": "VEC3",
      "max": [-215.9936065673828, 533.2615966796875, 184.41940307617188],
      "min": [-269.8522033691406, 525.765625, 130.92019653320312],
      "name": "POSITION"
    },
    {
      "bufferView": 3,
      "byteOffset": 12,
      "componentType": 5126,
      "count": 43,
      "type": "VEC2",
      "max": [3.56820011138916, 0.6407999992370605],
      "min": [-2.56820011138916, -1.611199975013733],
      "name": "TEXCOORD_0"
    },
    {
      "bufferView": 0,
      "byteOffset": 348,
      "componentType": 5123,
      "count": 54,
      "type": "SCALAR",
      "max": [42],
      "min": [0]
    },
    {
      "bufferView": 4,
      "byteOffset": 0,
      "componentType": 5126,
      "count": 43,
      "type": "VEC3",
      "max": [-215.9936065673828, 533.2615966796875, 24.516000747680664],
      "min": [-269.8522033691406, 525.765625, -28.98310089111328],
      "name": "POSITION"
    },
    {
      "bufferView": 4,
      "byteOffset": 12,
      "componentType": 5126,
      "count": 43,
      "type": "VEC2",
      "max": [3.56820011138916, -0.3483000099658966],
      "min": [-2.56820011138916, -1.611199975013733],
      "name": "TEXCOORD_0"
    },
    {
      "bufferView": 0,
      "byteOffset": 456,
      "componentType": 5123,
      "count": 126,
      "type": "SCALAR",
      "max": [104],
      "min": [0]
    },
    {
      "bufferView": 5,
      "byteOffset": 0,
      "componentType": 5126,
      "count": 105,
      "type": "VEC3",
      "max": [260.8753967285156, 743.0841064453125, 500.8357849121094],
      "min": [-260.87579345703125, 734.1077270507812, -500.79229736328125],
      "name": "POSITION"
    },
    {
      "bufferView": 5,
      "byteOffset": 12,
      "componentType": 5126,
      "count": 105,
      "type": "VEC2",
      "max": [3.5425000190734863, 2.598099946975708],
      "min": [-2.5425000190734863, -3.5978000164031982],
      "name": "TEXCOORD_0"
    },
    {
      "bufferView": 0,
      "byteOffset": 708,
      "componentType": 5123,
      "count": 4548,
      "type": "SCALAR",
      "max": [3524],
      "min": [0]
    },
    {
      "bufferView": 6,
      "byteOffset": 0,
      "componentType": 5126,
      "count": 3525,
      "type": "VEC3",
      "max": [236.6175994873047, 790.2847900390625, 482.48541259765625],
      "min": [-237.29080200195312, 729.38720703125, -483.15850830078125],
      "name": "POSITION"
    },
    {
      "bufferView": 6,
      "byteOffset": 12,
      "componentType": 5126,
      "count": 3525,
      "type": "VEC2",
      "max": [1.3508000373840332, 0.33180001378059387],
      "min": [-0.3508000075817108, -3.722599983215332],
      "name": "TEXCOORD_0"
    },
    {
      "bufferView": 0,
      "byteOffset": 9804,
      "componentType": 5123,
      "count": 1527,
      "type": "SCALAR",
      "max": [1228],
      "min": [0]
    },
    {
      "bufferView": 7,
      "byteOffset": 0,
      "componentType": 5126,
      "count": 1229,
      "type": "VEC3",
      "max": [281.07269287109375, 743.0841064453125, 520.965576171875],
      "min": [-281.07269287109375, 7.381690979003906, -520.965576171875],
      "name": "POSITION"
    },
    {
      "bufferView": 7,
      "byteOffset": 12,
      "componentType": 5126,
      "count": 1229,
      "type": "VEC2",
      "max": [3.722599983215332, 2.722599983215332],
      "min": [-2.722599983215332, -3.722599983215332],
      "name": "TEXCOORD_0"
    },
    {
      "bufferView": 0,
      "byteOffset": 12860,
      "componentType": 5123,
      "count": 4938,
      "type": "SCALAR",
      "max": [3780],
      "min": [0]
    },
    {
      "bufferView": 8,
      "byteOffset": 0,
      "componentType": 5126,
      "count": 3781,
      "type": "VEC3",
      "max": [269.8522033691406, 735.6353149414062, 509.7452087402344],
      "min": [-269.8522033691406, 7.3813862800598145, -509.7687072753906],
      "name": "POSITION"
    },
    {
      "bufferView": 8,
      "byteOffset": 12,
      "componentType": 5126,
      "count": 3781,
      "type": "VEC2",
      "max": [3.6533000469207764, 2.708899974822998],
      "min": [-2.6533000469207764, -3.6531999111175537],
      "name": "TEXCOORD_0"
    },
    {
      "bufferView": 0,
      "byteOffset": 22736,
      "componentType": 5123,
      "count": 324,
      "type": "SCALAR",
      "max": [269],
      "min": [0]
    },
    {
      "bufferView": 9,
      "byteOffset": 0,
      "componentType": 5126,
      "count": 270,
      "type": "VEC3",
      "max": [243.74200439453125, 668.2260131835938, 483.635009765625],
      "min": [-243.74159240722656, 6.771886825561523, -483.6348876953125],
      "name": "POSITION"
    },
    {
      "bufferView": 9,
      "byteOffset": 12,
      "componentType": 5126,
      "count": 270,
      "type": "VEC2",
      "max": [3.3261001110076904, 2.713900089263916],
      "min": [-2.3261001110076904, -2.719899892807007],
      "name": "TEXCOORD_0"
    },
    {
      "bufferView": 0,
      "byteOffset": 23384,
      "componentType": 5123,
      "count": 14112,
      "type": "SCALAR",
      "max": [10972],
      "min": [0]
    },
    {
      "bufferView": 10,
      "byteOffset": 0,
      "componentType": 5126,
      "count": 10973,
      "type": "VEC3",
      "max": [246.5919952392578, 668.214111328125, 486.48541259765625],
      "min": [-246.5919952392578, 5.718286991119385, -486.48529052734375],
      "name": "POSITION"
    },
    {
      "bufferView": 10,
      "byteOffset": 12,
      "componentType": 5126,
      "count": 10973,
      "type": "VEC2",
      "max": [3.5092999935150146, 2.722599983215332],
      "min": [-2.5092999935150146, -3.5092999935150146],
      "name": "TEXCOORD_0"
    }
  ],
  "asset": { "generator": "Aspose.3D 23.7.0", "version": "2.0" },
  "buffers": [
    {
      "uri": "data:application/octet-stream;base64,",
      "byteLength": 567712
    }
  ],
  "bufferViews": [
    { "buffer": 0, "byteOffset": 0, "byteLength": 51608, "target": 34963 },
    {
      "buffer": 0,
      "byteOffset": 51612,
      "byteLength": 1200,
      "byteStride": 20,
      "target": 34962
    },
    {
      "buffer": 0,
      "byteOffset": 52816,
      "byteLength": 1200,
      "byteStride": 20,
      "target": 34962
    },
    {
      "buffer": 0,
      "byteOffset": 54020,
      "byteLength": 1080,
      "byteStride": 20,
      "target": 34962
    },
    {
      "buffer": 0,
      "byteOffset": 55104,
      "byteLength": 1080,
      "byteStride": 20,
      "target": 34962
    },
    {
      "buffer": 0,
      "byteOffset": 56188,
      "byteLength": 2520,
      "byteStride": 20,
      "target": 34962
    },
    {
      "buffer": 0,
      "byteOffset": 58712,
      "byteLength": 90960,
      "byteStride": 20,
      "target": 34962
    },
    {
      "buffer": 0,
      "byteOffset": 149676,
      "byteLength": 30540,
      "byteStride": 20,
      "target": 34962
    },
    {
      "buffer": 0,
      "byteOffset": 180220,
      "byteLength": 98760,
      "byteStride": 20,
      "target": 34962
    },
    {
      "buffer": 0,
      "byteOffset": 278984,
      "byteLength": 6480,
      "byteStride": 20,
      "target": 34962
    },
    {
      "buffer": 0,
      "byteOffset": 285468,
      "byteLength": 282240,
      "byteStride": 20,
      "target": 34962
    }
  ],
  "images": [
    { "uri": "4_whites.jpg" },
    { "uri": "4_whites.jpg" },
    { "uri": "4_redsml.jpg" },
    { "uri": "4_blues.jpg" },
    { "uri": "Metal G6.jpg" },
    { "uri": "4_yellow.jpg" },
    { "uri": "4_yellow.jpg" }
  ],
  "materials": [
    {
      "name": "white_st",
      "pbrMetallicRoughness": {
        "baseColorFactor": [
          0.9803921568627451, 0.9411764705882353, 0.9490196078431372, 1
        ],
        "baseColorTexture": { "index": 1, "texCoord": 0 },
        "metallicFactor": 0,
        "roughnessFactor": 0
      },
      "normalTexture": { "index": 0, "texCoord": 0, "scale": 1 },
      "emissiveFactor": [0, 0, 0],
      "alphaMode": "OPAQUE",
      "doubleSided": false
    },
    {
      "name": "white_st",
      "pbrMetallicRoughness": {
        "baseColorFactor": [
          0.9803921568627451, 0.9411764705882353, 0.9490196078431372, 1
        ],
        "baseColorTexture": { "index": 1, "texCoord": 0 },
        "metallicFactor": 0,
        "roughnessFactor": 0
      },
      "normalTexture": { "index": 0, "texCoord": 0, "scale": 1 },
      "emissiveFactor": [0, 0, 0],
      "alphaMode": "OPAQUE",
      "doubleSided": false
    },
    {
      "name": "st_red",
      "pbrMetallicRoughness": {
        "baseColorFactor": [
          0.9215686274509803, 0.9215686274509803, 0.9215686274509803, 1
        ],
        "baseColorTexture": { "index": 2, "texCoord": 0 },
        "metallicFactor": 0,
        "roughnessFactor": 0
      },
      "emissiveFactor": [0, 0, 0],
      "alphaMode": "OPAQUE",
      "doubleSided": false
    },
    {
      "name": "st_red",
      "pbrMetallicRoughness": {
        "baseColorFactor": [
          0.9215686274509803, 0.9215686274509803, 0.9215686274509803, 1
        ],
        "baseColorTexture": { "index": 2, "texCoord": 0 },
        "metallicFactor": 0,
        "roughnessFactor": 0
      },
      "emissiveFactor": [0, 0, 0],
      "alphaMode": "OPAQUE",
      "doubleSided": false
    },
    {
      "name": "blue",
      "pbrMetallicRoughness": {
        "baseColorFactor": [
          0.6588235294117647, 0.8392156862745098, 0.9647058823529412, 1
        ],
        "baseColorTexture": { "index": 3, "texCoord": 0 },
        "metallicFactor": 0,
        "roughnessFactor": 0
      },
      "emissiveFactor": [0, 0, 0],
      "alphaMode": "OPAQUE",
      "doubleSided": false
    },
    {
      "name": "st_gold",
      "pbrMetallicRoughness": {
        "baseColorFactor": [
          0.9450980392156862, 0.7686274509803922, 0.403921568627451, 1
        ],
        "baseColorTexture": { "index": 4, "texCoord": 0 },
        "metallicFactor": 0,
        "roughnessFactor": 0
      },
      "emissiveFactor": [0, 0, 0],
      "alphaMode": "OPAQUE",
      "doubleSided": false
    },
    {
      "name": "st_red",
      "pbrMetallicRoughness": {
        "baseColorFactor": [
          0.9215686274509803, 0.9215686274509803, 0.9215686274509803, 1
        ],
        "baseColorTexture": { "index": 2, "texCoord": 0 },
        "metallicFactor": 0,
        "roughnessFactor": 0
      },
      "emissiveFactor": [0, 0, 0],
      "alphaMode": "OPAQUE",
      "doubleSided": false
    },
    {
      "name": "white_st",
      "pbrMetallicRoughness": {
        "baseColorFactor": [
          0.9803921568627451, 0.9411764705882353, 0.9490196078431372, 1
        ],
        "baseColorTexture": { "index": 1, "texCoord": 0 },
        "metallicFactor": 0,
        "roughnessFactor": 0
      },
      "normalTexture": { "index": 0, "texCoord": 0, "scale": 1 },
      "emissiveFactor": [0, 0, 0],
      "alphaMode": "OPAQUE",
      "doubleSided": false
    },
    {
      "name": "clear_window",
      "pbrMetallicRoughness": {
        "baseColorFactor": [
          0.5764705882352941, 0.6196078431372549, 0.7372549019607844, 0.81
        ],
        "metallicFactor": 0,
        "roughnessFactor": 0
      },
      "emissiveFactor": [0, 0, 0],
      "alphaMode": "BLEND",
      "doubleSided": false
    },
    {
      "name": "yellow",
      "pbrMetallicRoughness": {
        "baseColorFactor": [
          0.9215686274509803, 0.5686274509803921, 0.25882352941176473, 1
        ],
        "baseColorTexture": { "index": 6, "texCoord": 0 },
        "metallicFactor": 0,
        "roughnessFactor": 0
      },
      "normalTexture": { "index": 5, "texCoord": 0, "scale": 1 },
      "emissiveFactor": [0, 0, 0],
      "alphaMode": "OPAQUE",
      "doubleSided": false
    }
  ],
  "meshes": [
    {
      "primitives": [
        {
          "attributes": { "POSITION": 1, "TEXCOORD_0": 2 },
          "indices": 0,
          "material": 0,
          "mode": 4
        }
      ],
      "name": "Mesh01"
    },
    {
      "primitives": [
        {
          "attributes": { "POSITION": 4, "TEXCOORD_0": 5 },
          "indices": 3,
          "material": 1,
          "mode": 4
        }
      ],
      "name": "Mesh02"
    },
    {
      "primitives": [
        {
          "attributes": { "POSITION": 7, "TEXCOORD_0": 8 },
          "indices": 6,
          "material": 2,
          "mode": 4
        }
      ],
      "name": "Mesh03"
    },
    {
      "primitives": [
        {
          "attributes": { "POSITION": 10, "TEXCOORD_0": 11 },
          "indices": 9,
          "material": 3,
          "mode": 4
        }
      ],
      "name": "Mesh04"
    },
    {
      "primitives": [
        {
          "attributes": { "POSITION": 13, "TEXCOORD_0": 14 },
          "indices": 12,
          "material": 4,
          "mode": 4
        },
        {
          "attributes": { "POSITION": 16, "TEXCOORD_0": 17 },
          "indices": 15,
          "material": 5,
          "mode": 4
        },
        {
          "attributes": { "POSITION": 19, "TEXCOORD_0": 20 },
          "indices": 18,
          "material": 6,
          "mode": 4
        },
        {
          "attributes": { "POSITION": 22, "TEXCOORD_0": 23 },
          "indices": 21,
          "material": 7,
          "mode": 4
        },
        {
          "attributes": { "POSITION": 25, "TEXCOORD_0": 26 },
          "indices": 24,
          "material": 8,
          "mode": 4
        },
        {
          "attributes": { "POSITION": 28, "TEXCOORD_0": 29 },
          "indices": 27,
          "material": 9,
          "mode": 4
        }
      ],
      "name": "build61"
    }
  ],
  "nodes": [
    {
      "matrix": [
        -1, 0, 0, 0, 0, 1, -4.371138828673793e-8, 0, 0, -4.371138828673793e-8,
        -1, 0, 0, -398.0015563964844, 1.7397202100255527e-5, 1
      ],
      "mesh": 0,
      "name": "Mesh01"
    },
    {
      "matrix": [
        -1, 0, 0, 0, 0, 1, -4.371138828673793e-8, 0, 0, -4.371138828673793e-8,
        -1, 0, 0, -398.0015563964844, 1.7397202100255527e-5, 1
      ],
      "mesh": 1,
      "name": "Mesh02"
    },
    {
      "matrix": [
        -1, 0, 0, 0, 0, 1, -4.371138828673793e-8, 0, 0, -4.371138828673793e-8,
        -1, 0, 0, -398.0015563964844, 1.7397202100255527e-5, 1
      ],
      "mesh": 2,
      "name": "Mesh03"
    },
    {
      "matrix": [
        -1, 0, 0, 0, 0, 1, -4.371138828673793e-8, 0, 0, -4.371138828673793e-8,
        -1, 0, 0, -398.0015563964844, 1.7397202100255527e-5, 1
      ],
      "mesh": 3,
      "name": "Mesh04"
    },
    {
      "matrix": [
        -1, 0, 0, 0, 0, 1, -4.371138828673793e-8, 0, 0, -4.371138828673793e-8,
        -1, 0, 0, -398.0015563964844, 1.7397202100255527e-5, 1
      ],
      "mesh": 4,
      "name": "build61"
    }
  ],
  "samplers": [
    { "magFilter": 9729, "minFilter": 9729, "wrapS": 10497, "wrapT": 10497 },
    { "magFilter": 9729, "minFilter": 9729, "wrapS": 10497, "wrapT": 10497 },
    { "magFilter": 9729, "minFilter": 9729, "wrapS": 10497, "wrapT": 10497 },
    { "magFilter": 9729, "minFilter": 9729, "wrapS": 10497, "wrapT": 10497 },
    { "magFilter": 9729, "minFilter": 9729, "wrapS": 10497, "wrapT": 10497 },
    { "magFilter": 9729, "minFilter": 9729, "wrapS": 10497, "wrapT": 10497 },
    { "magFilter": 9729, "minFilter": 9729, "wrapS": 10497, "wrapT": 10497 }
  ],
  "scene": 0,
  "scenes": [{ "nodes": [0, 1, 2, 3, 4] }],
  "textures": [
    { "sampler": 0, "source": 0, "name": "" },
    { "sampler": 1, "source": 1, "name": "" },
    { "sampler": 2, "source": 2, "name": "" },
    { "sampler": 3, "source": 3, "name": "" },
    { "sampler": 4, "source": 4, "name": "" },
    { "sampler": 5, "source": 5, "name": "" },
    { "sampler": 6, "source": 6, "name": "" }
  ]
}
