{"accessors" : [{"bufferView" : 0, "byteOffset" : 0, "componentType" : 5123, "count" : 43020, "type" : "SCALAR", "max" : [34273], "min" : [0]}, {"bufferView" : 1, "byteOffset" : 0, "componentType" : 5126, "count" : 34274, "type" : "VEC3", "max" : [12.00409984588623, 8.26310920715332, 51.18968963623047], "min" : [-12.004100799560547, -8.61733341217041, -1.3852550461151015E-14], "name" : "POSITION"}, {"bufferView" : 1, "byteOffset" : 12, "componentType" : 5126, "count" : 34274, "type" : "VEC2", "max" : [329.8769226074219, 315.61810302734375], "min" : [-324.99407958984375, -111.01558685302734], "name" : "TEXCOORD_0"}], "asset" : {"generator" : "Aspose.3D 24.6.0", "version" : "2.0"}, "buffers" : [{"uri" : "data:application/octet-stream;base64,", "byteLength" : 771528}], "bufferViews" : [{"buffer" : 0, "byteOffset" : 0, "byteLength" : 86040, "target" : 34963}, {"buffer" : 0, "byteOffset" : 86044, "byteLength" : 685480, "byteStride" : 20, "target" : 34962}], "meshes" : [{"primitives" : [{"attributes" : {"POSITION" : 1, "TEXCOORD_0" : 2}, "indices" : 0, "mode" : 4}], "name" : "Model01"}], "nodes" : [{"matrix" : [1, 0, -8.742277657347586E-08, 0, -8.742277657347586E-08, 0, -1, 0, 0, 1, 0, 0, -23.76034927368164, 0, 4.3941826820373535, 1], "mesh" : 0, "name" : "Model01"}], "scene" : 0, "scenes" : [{"nodes" : [0]}]}